# xmcd CD database file
#
# Track frame offsets:
#	150
#	21468
#	42843
#	71895
#	93580
#	118480
#	137883
#	161627
#	181053
#	202678
#
# Disc length: 3064 seconds
#
# Revision: 2
# Processed by: cddbd v1.5.2PL0 Copyright (c) Steve Scherf et al.
# Submitted via: CDex 2.00
#
DISCID=900bf60a
DTITLE=Boz Scaggs - Dig
DYEAR=2006
DGENRE=Jazz
TTITLE0=Payday
TTITLE1=Sarah
TTITLE2=Miss Riddle
TTITLE3=I Just Go
TTITLE4=Desire
TTITLE5=Call That Love
TTITLE6=King Of El Paso
TTITLE7=You're Not
TTITLE8=Vanishing Point
TTITLE9=Thanks To You
EXTD=YEAR: 2006
EXTT0=
EXTT1=
EXTT2=
EXTT3=
EXTT4=
EXTT5=
EXTT6=
EXTT7=
EXTT8=
EXTT9=
PLAYORDER=
